# xmcd
#
# Track frame offsets:
#	150
#	18900
#	38250
#	53250
#	68550
#	85950
#	105450
#	121875
#	139575
#	155250
#	170775
#	188625
#	206775
#	228075
#	246300
#	264000
#
# Disc length: 3719 seconds
#
# Revision: 7
# Processed by: cddbd v1.5.2PL0 Copyright (c) Steve Scherf et al.
# Submitted via: audiograbber 1.83.01
#
DISCID=bc0e8510
DTITLE=Party Tyme Karaoke - SYB1082 Country Hits 2
DYEAR=2003
DGENRE=Karaoke
TTITLE0=Alan Jackson - Where I Come From
TTITLE1=Lee Ann Womack - I Hope You Dance
TTITLE2=Toby Keith - I'm Just Talkin' About Tonight
TTITLE3=Trick Pony - Pour Me
TTITLE4=Steve Holy - Good Morning Beautiful
TTITLE5=Jamie O'Neal - There Is No Arizona
TTITLE6=Brooks and Dunn - Ain't Nothing 'Bout You
TTITLE7=Martina McBride - When God Fearin' Women
TTITLE8=Lee Greenwood - God Bless The USA
TTITLE9=Jamie O'Neal - When I Think About Angels
TTITLE10=Tim McGraw - My Next Thirty Years
TTITLE11=Faith Hill - There You'll Be
TTITLE12=Travis Tritt - It's A Great Day To Be Alive
TTITLE13=Sara Evans - Born To Fly
TTITLE14=Diamond Rio - One More Day
TTITLE15=Faith Hill - The Way You Love Me
EXTD=
EXTT0=
EXTT1=
EXTT2=
EXTT3=
EXTT4=
EXTT5=
EXTT6=
EXTT7=
EXTT8=
EXTT9=
EXTT10=
EXTT11=
EXTT12=
EXTT13=
EXTT14=
EXTT15=
PLAYORDER=
